<?xml version="1.0" standalone="no"?>
<!DOCTYPE svg PUBLIC "-//W3C//DTD SVG 1.1//EN" "http://www.w3.org/Graphics/SVG/1.1/DTD/svg11.dtd">
<svg version="1.1" xmlns="http://www.w3.org/2000/svg" viewBox="0 0 120 120" width="120" height="120"><!-- svg-source:excalidraw --><metadata></metadata><defs><style class="style-fonts">
      </style></defs><g stroke-linecap="round" transform="translate(10 10) rotate(0 50 50)"><path d="M25 0 C38.71 0, 52.41 0, 75 0 C91.67 0, 100 8.33, 100 25 C100 39.33, 100 53.66, 100 75 C100 91.67, 91.67 100, 75 100 C62.54 100, 50.09 100, 25 100 C8.33 100, 0 91.67, 0 75 C0 59.08, 0 43.16, 0 25 C0 8.33, 8.33 0, 25 0" stroke="none" stroke-width="0" fill="#1a1a1a"></path><path d="M25 0 C41.74 0, 58.49 0, 75 0 M25 0 C38.35 0, 51.7 0, 75 0 M75 0 C91.67 0, 100 8.33, 100 25 M75 0 C91.67 0, 100 8.33, 100 25 M100 25 C100 39.16, 100 53.31, 100 75 M100 25 C100 42.48, 100 59.97, 100 75 M100 75 C100 91.67, 91.67 100, 75 100 M100 75 C100 91.67, 91.67 100, 75 100 M75 100 C63.75 100, 52.5 100, 25 100 M75 100 C57.91 100, 40.81 100, 25 100 M25 100 C8.33 100, 0 91.67, 0 75 M25 100 C8.33 100, 0 91.67, 0 75 M0 75 C0 62.16, 0 49.31, 0 25 M0 75 C0 56.5, 0 38.01, 0 25 M0 25 C0 8.33, 8.33 0, 25 0 M0 25 C0 8.33, 8.33 0, 25 0" stroke="transparent" stroke-width="2" fill="none"></path></g><g stroke-linecap="round"><g transform="translate(30 30) rotate(0 0 30)"><path d="M0 0 C0 10, 0 50, 0 60 M0 0 C0 10, 0 50, 0 60" stroke="#ffffff" stroke-width="4" fill="none"></path></g></g><mask></mask><g stroke-linecap="round"><g transform="translate(30 70) rotate(0 10 -10)"><path d="M0 0 C3.33 -3.33, 16.67 -16.67, 20 -20 M0 0 C3.33 -3.33, 16.67 -16.67, 20 -20" stroke="#ffffff" stroke-width="4" fill="none"></path></g></g><mask></mask><g stroke-linecap="round"><g transform="translate(50 30) rotate(0 0 30)"><path d="M0 0 C0 10, 0 50, 0 60 M0 0 C0 10, 0 50, 0 60" stroke="#ffffff" stroke-width="4" fill="none"></path></g></g><mask></mask><g stroke-linecap="round"><g transform="translate(70 70) rotate(0 10 -10)"><path d="M0 0 C3.33 -3.33, 16.67 -16.67, 20 -20 M0 0 C3.33 -3.33, 16.67 -16.67, 20 -20" stroke="#ffffff" stroke-width="4" fill="none"></path></g></g><mask></mask><g stroke-linecap="round"><g transform="translate(90 50) rotate(0 -10 0)"><path d="M0 0 C-3.33 0, -16.67 0, -20 0 M0 0 C-3.33 0, -16.67 0, -20 0" stroke="#ffffff" stroke-width="4" fill="none"></path></g></g><mask></mask><g stroke-linecap="round"><g transform="translate(70 50) rotate(0 0 20)"><path d="M0 0 C0 6.67, 0 33.33, 0 40 M0 0 C0 6.67, 0 33.33, 0 40" stroke="#ffffff" stroke-width="4" fill="none"></path></g></g><mask></mask><g stroke-linecap="round"><g transform="translate(70 90) rotate(0 10 -10)"><path d="M0 0 C3.33 -3.33, 16.67 -16.67, 20 -20 M0 0 C3.33 -3.33, 16.67 -16.67, 20 -20" stroke="#ffffff" stroke-width="4" fill="none"></path></g></g><mask></mask></svg>